<?xml version="1.0" encoding="utf-8"?>
<!-- Generator: Adobe Illustrator 23.0.6, SVG Export Plug-In . SVG Version: 6.00 Build 0)  -->
<svg version="1.1" xmlns="http://www.w3.org/2000/svg" xmlns:xlink="http://www.w3.org/1999/xlink" x="0px" y="0px"
	 viewBox="0 0 400 400" style="enable-background:new 0 0 400 400;" xml:space="preserve">
<style type="text/css">
	.st0{display:none;}
	.st1{display:inline;}
	.st2{fill:#FBBC53;}
	.st3{fill:#F1DAC8;}
	.st4{fill:#BDD378;}
	.st5{fill:#020203;}
	.st6{fill:#FFFFFF;}
</style>
<g id="Слой_1" class="st0">
	<g class="st1">
		<path class="st2" d="M136.5,191.8c0,0-11-60.7,46.9-73.2c0,0,33.8-12.1,51.1,9.5c0,0-64.4,22.1-62.5,53.9
			C172.1,182,144.1,187.3,136.5,191.8z"/>
		<path class="st2" d="M268.6,71.3c0,0-13.8-31.7,22.8-44.5h17c0,0-31.7,22.1-27.4,40.5L268.6,71.3"/>
		<path class="st3" d="M181.4,251.3c0,0,27.5-12.8,29.8-69.8l16.6-11.5v15.3l10.7,1.5c0,0,8.5,49.6-10,60.4S204.5,266.9,181.4,251.3
			z"/>
		<path class="st2" d="M266.3,208.4c0,0-13.8-31.7,22.8-44.5h17c0,0-31.7,22.1-27.4,40.5L266.3,208.4"/>
		<path class="st2" d="M73.2,70.3c0,0-13.8-31.7,22.8-44.5h17c0,0-31.7,22.1-27.4,40.5L73.2,70.3"/>
		<path class="st2" d="M73.2,206.5c0,0-13.8-31.7,22.8-44.5h17c0,0-31.7,22.1-27.4,40.5L73.2,206.5"/>
		<path class="st3" d="M251.4,279.9c0,0,7.9,73.7-51,88H297c0,0,4.9-69.9-5.6-72.8S264.5,274.4,251.4,279.9z"/>
		<polygon class="st4" points="166.4,276.1 181.4,270.5 200.5,285.6 219.5,270.5 234.5,276.1 228.5,305.9 205,293.7 190.3,293.7 
			172.5,305.9 		"/>
		<path class="st5" d="M376.5,201.9v-45.6c0-12.6-8.1-23.6-20.2-27.2l-36.5-11v-8.6c10.3-7.2,17-19.1,17-32.6V60
			c0-21.9-17.8-39.7-39.7-39.7S257.2,38,257.2,60v17c0,13.5,6.8,25.4,17,32.6v8.6l-32.2,9.7c-12.1-10.8-27.5-16.8-43.8-16.8
			c-16.3,0-31.2,6-42.7,15.8l-28.9-8.7v-8.6c10.3-7.2,17-19.1,17-32.6V60c0-21.9-17.8-39.7-39.7-39.7S64.2,38,64.2,60v17
			c0,13.5,6.8,25.4,17,32.6v8.6l-36.5,11c-12.1,3.6-20.2,14.6-20.2,27.2v45.6h11.4v-45.6c0-7.6,4.9-14.1,12.1-16.3l36.6-11
			c3.3,4.3,9.7,10.4,19.4,10.4s16.1-6.1,19.4-10.4l23.3,7c-7.4,9.3-12.3,20.6-13.8,33c-7.2-7.7-17.5-12.6-28.9-12.6
			c-21.9,0-39.7,17.8-39.7,39.7v17c0,13.5,6.8,25.4,17,32.6v8.6l-36.5,11C32.6,269,24.5,280,24.5,292.6v51.2h68.1
			c3.1,0,5.7,2.6,5.7,5.7v22.7h204.4v-22.7c0-3.1,2.6-5.7,5.7-5.7h68.1v-51.2c0-12.6-8.1-23.6-20.2-27.2l-36.5-11v-8.6
			c10.3-7.2,17-19.1,17-32.6v-17c0-21.9-17.8-39.7-39.7-39.7c-11.1,0-21.2,4.6-28.4,12v-5.4c0-11.2-6.1-21.3-15.6-26.6l24.6-7.4
			c3.3,4.3,9.7,10.4,19.4,10.4c9.7,0,16.1-6.1,19.4-10.4l36.6,11c7.3,2.2,12.1,8.7,12.1,16.3v45.6H376.5z M103.9,31.6
			c15.7,0,28.4,12.7,28.4,28.4h-26c-3.6,0-7.1-1.5-9.7-4l-4-4l-4,4c-2.5,2.6-6.1,4-9.7,4h-3.3C75.6,44.3,88.3,31.6,103.9,31.6z
			 M75.6,77v-5.7h3.3c4.9,0,9.7-1.4,13.7-4.1c4,2.7,8.8,4.1,13.7,4.1h26V77c0,15.7-12.7,28.4-28.4,28.4S75.6,92.6,75.6,77z
			 M103.9,128.1c-6,0-9.9-5.1-11.4-7.2v-5.8c3.6,1.1,7.4,1.7,11.4,1.7s7.8-0.6,11.4-1.7v5.8C113.9,123,110,128.1,103.9,128.1z
			 M260,227.7c2.9,7.3,7.9,13.6,14.3,18.1v8.6l-36.5,11c-1.2,0.4-2.4,0.8-3.5,1.3l-5.4-1.2v-11.2c6.1-4.9,10.9-11.3,13.8-18.6
			C249.2,235.1,255.3,232.3,260,227.7z M200.5,264.3c6,0,11.8-1.2,17-3.3v6.2l-17,12.8l-17-12.8V261
			C188.7,263.1,194.4,264.3,200.5,264.3z M176.5,276.1l13.8,10.4l-14.2,8.5l-3.6-18L176.5,276.1z M194.2,321.1h12.5l4.4,39.7h-21.4
			L194.2,321.1z M207.7,309.8h-14.5l-3.3-9.8l10.5-6.3L211,300L207.7,309.8z M210.6,286.5l13.8-10.4l4,0.9l-3.6,18L210.6,286.5z
			 M252.8,219c-2,2.2-4.5,3.7-7.2,4.6c0.2-1.5,0.2-3.1,0.2-4.7v-27.2c6.1,2.3,10.7,7.7,11.3,14.1C257.6,210.8,256.1,215.4,252.8,219
			z M234.5,218.9c0,18.8-15.3,34.1-34.1,34.1s-34.1-15.3-34.1-34.1v-28.4h19.3c12.4,0,24.4-3.1,35.2-9l4.5,9h9.2V218.9z
			 M155.3,223.6c-2.7-0.9-5.2-2.4-7.2-4.6c-3.3-3.6-4.8-8.3-4.3-13.1c0.6-6.4,5.2-11.8,11.3-14.1v27.2
			C155,220.5,155.1,222.1,155.3,223.6z M158.3,235.7c2.9,7.3,7.7,13.7,13.8,18.6v11.2l-5.4,1.2c-1.1-0.5-2.3-1-3.5-1.3l-36.5-11
			v-8.6c6.4-4.5,11.4-10.7,14.3-18.1C145.6,232.3,151.7,235.1,158.3,235.7z M103.9,167.8c15.7,0,28.4,12.7,28.4,28.4H129
			c-3.6,0-7.1-1.5-9.7-4l-4-4l-4,4c-2.5,2.6-6.1,4-9.7,4h-26C75.6,180.6,88.3,167.8,103.9,167.8z M75.6,213.2v-5.7h26
			c4.9,0,9.7-1.4,13.7-4.1c4,2.7,8.8,4.1,13.7,4.1h3.3v5.7c0,15.7-12.7,28.4-28.4,28.4S75.6,228.9,75.6,213.2z M103.9,253
			c3.9,0,7.8-0.6,11.4-1.7v5.8c-1.4,2.2-5.3,7.2-11.4,7.2c-6,0-9.9-5.1-11.4-7.2v-5.8C96.2,252.4,100,253,103.9,253z M92.6,332.5
			H69.9v-39.7H58.5v39.7H35.8v-39.9c0-7.6,4.9-14.1,12.1-16.3l36.6-11c3.3,4.3,9.7,10.4,19.4,10.4s16.1-6.1,19.4-10.4l21.5,6.5
			l-15.8,3.7c-18.1,4.2-30.8,20.1-30.8,38.7v40h11.4v-40c0-13.3,9.1-24.7,22-27.7l29.8-6.9l6.7,33.5L180,306l3.4,10.1l-5,44.8h-29
			v-45.4H138v45.4h-28.4v-11.4C109.6,340.1,102,332.5,92.6,332.5z M353,276.3c7.3,2.2,12.1,8.7,12.1,16.3v39.9h-22.7v-39.7H331v39.7
			h-22.7c-9.4,0-17,7.6-17,17v11.4h-28.4v-45.4h-11.4v45.4h-29l-5-44.8l3.4-10.1l11.9,7.1l6.7-33.5l29.8,6.9c13,3,22,14.4,22,27.7
			v35h11.4v-35c0-18.6-12.7-34.5-30.8-38.7l-15.8-3.7l21.5-6.5c3.3,4.3,9.7,10.4,19.4,10.4c9.7,0,16.1-6.1,19.4-10.4L353,276.3z
			 M308.3,257.1c-1.4,2.2-5.3,7.2-11.4,7.2c-6,0-10-5.1-11.4-7.2v-5.8c3.6,1.1,7.4,1.7,11.4,1.7c3.9,0,7.8-0.6,11.4-1.7V257.1z
			 M297,241.6c-15.7,0-28.4-12.7-28.4-28.4v-5.7h3.3c4.9,0,9.7-1.4,13.7-4.1c4,2.7,8.8,4.1,13.7,4.1h26v5.7
			C325.4,228.9,312.6,241.6,297,241.6z M297,167.8c15.7,0,28.4,12.7,28.4,28.4h-26c-3.6,0-7.1-1.5-9.7-4l-4-4l-4,4
			c-2.5,2.6-6.1,4-9.7,4h-3.3C268.6,180.6,281.3,167.8,297,167.8z M257.2,185.3c-5-3.8-11.3-6.2-18-6.2h-6.9l-7-14l-5.4,3.6
			c-10.2,6.8-22.1,10.4-34.4,10.4h-24c-6.7,0-13,2.4-18,6.2v-8.4c0-30.1,24.5-54.5,54.5-54.5c14.6,0,28.3,5.7,38.6,16l6,6l1.3,0.4
			c7.9,2.6,13.1,10,13.1,18.2V185.3z M297,31.6c15.7,0,28.4,12.7,28.4,28.4H322c-3.6,0-7.1-1.5-9.7-4l-4-4l-4,4
			c-2.5,2.6-6.1,4-9.7,4h-26C268.6,44.3,281.3,31.6,297,31.6z M268.6,77v-5.7h26c4.9,0,9.7-1.4,13.7-4.1c4,2.7,8.8,4.1,13.7,4.1h3.3
			V77c0,15.7-12.7,28.4-28.4,28.4S268.6,92.6,268.6,77z M297,128.1c-6,0-10-5.1-11.4-7.2v-5.8c3.6,1.1,7.4,1.7,11.4,1.7
			c3.9,0,7.8-0.6,11.4-1.7v5.8C306.9,123,303,128.1,297,128.1z"/>
	</g>
</g>
<g id="Слой_2" class="st0">
	<g class="st1">
		<circle class="st2" cx="210.3" cy="184.1" r="47.4"/>
		<ellipse class="st3" cx="200.2" cy="184.1" rx="37.2" ry="47.4"/>
		<path class="st6" d="M210.3,231.5c1.9,0,3.8-0.1,5.7-0.4c-18.5-2.8-32.8-22.8-32.8-47s14.3-44.2,32.8-47
			c-17.5-2.1-34.7,5.6-44.7,20.1c-10,14.5-11.1,33.3-2.9,48.9C176.6,221.7,192.7,231.5,210.3,231.5L210.3,231.5z"/>
		<g>
			<circle class="st2" cx="345.7" cy="55.4" r="33.9"/>
			
				<ellipse transform="matrix(7.088904e-02 -0.9975 0.9975 7.088904e-02 -150.2614 531.8011)" class="st2" cx="210.3" cy="346.6" rx="33.9" ry="33.9"/>
		</g>
		<g>
			<ellipse class="st3" cx="335.6" cy="55.4" rx="23.7" ry="33.9"/>
			<ellipse class="st3" cx="200.2" cy="346.6" rx="23.7" ry="33.9"/>
		</g>
		
			<ellipse transform="matrix(2.628851e-02 -0.9997 0.9997 2.628851e-02 -279.7189 378.868)" class="st2" cx="54.6" cy="333" rx="33.9" ry="33.9"/>
		<g>
			<circle class="st3" cx="102" cy="75.8" r="20.3"/>
			<ellipse class="st3" cx="44.5" cy="333" rx="23.7" ry="33.9"/>
		</g>
		<g>
			<path class="st6" d="M54.6,366.9c2,0,4-0.2,6-0.6c-11.1-2.8-19.5-16.6-19.5-33.2s8.4-30.4,19.5-33.2c-12.6-2.3-25.4,2.8-33.1,13
				c-7.7,10.3-8.9,24-3.2,35.4S41.8,366.9,54.6,366.9L54.6,366.9z"/>
			<path class="st6" d="M211.1,380.4c2,0,4-0.2,6-0.6c-11.1-2.8-19.5-16.6-19.5-33.2c0-16.6,8.4-30.4,19.5-33.2
				c-12.6-2.3-25.4,2.8-33.1,13c-7.7,10.3-8.9,24-3.2,35.4C186.6,373.2,198.3,380.4,211.1,380.4L211.1,380.4z"/>
			<path class="st6" d="M346.5,89.3c2,0,4-0.2,6-0.6C341.4,85.9,333,72.1,333,55.4s8.4-30.4,19.5-33.2c-12.6-2.3-25.4,2.8-33.1,13
				c-7.7,10.3-8.9,24-3.2,35.4C322,82.1,333.7,89.3,346.5,89.3L346.5,89.3z"/>
		</g>
		<circle class="st3" cx="318.7" cy="292.4" r="20.3"/>
		<g>
			<path class="st5" d="M210.3,238.2c-29.9,0-54.2-24.2-54.2-54.2s24.2-54.2,54.2-54.2s54.2,24.2,54.2,54.2
				C264.5,214,240.2,238.2,210.3,238.2L210.3,238.2z M210.3,143.5c-22.4,0-40.6,18.2-40.6,40.6s18.2,40.6,40.6,40.6
				s40.6-18.2,40.6-40.6C250.9,161.7,232.8,143.5,210.3,143.5z"/>
			<path class="st5" d="M345.7,96.1c-22.4,0-40.6-18.2-40.6-40.6s18.2-40.6,40.6-40.6c22.4,0,40.6,18.2,40.6,40.6
				C386.3,77.9,368.2,96,345.7,96.1L345.7,96.1z M345.7,28.4c-15,0-27.1,12.1-27.1,27.1s12.1,27.1,27.1,27.1
				c15,0,27.1-12.1,27.1-27.1C372.8,40.5,360.7,28.4,345.7,28.4z"/>
			<path class="st5" d="M210.3,387.2c-22.4,0-40.6-18.2-40.6-40.6c0-22.4,18.2-40.6,40.6-40.6s40.6,18.2,40.6,40.6
				C250.9,369,232.8,387.2,210.3,387.2L210.3,387.2z M210.3,319.5c-15,0-27.1,12.1-27.1,27.1c0,15,12.1,27.1,27.1,27.1
				s27.1-12.1,27.1-27.1C237.4,331.6,225.3,319.5,210.3,319.5z"/>
			<path class="st5" d="M54.6,373.6C32.2,373.6,14,355.5,14,333s18.2-40.6,40.6-40.6s40.6,18.2,40.6,40.6
				C95.2,355.4,77,373.6,54.6,373.6L54.6,373.6z M54.6,305.9c-15,0-27.1,12.1-27.1,27.1c0,15,12.1,27.1,27.1,27.1S81.7,348,81.7,333
				C81.7,318.1,69.6,306,54.6,305.9L54.6,305.9z"/>
			<path class="st5" d="M102,102.8c-15,0-27.1-12.1-27.1-27.1S87.1,48.7,102,48.7s27.1,12.1,27.1,27.1
				C129.1,90.7,117,102.8,102,102.8z M102,62.2c-7.5,0-13.5,6.1-13.5,13.5c0,7.5,6.1,13.5,13.5,13.5s13.5-6.1,13.5-13.5
				C115.5,68.3,109.5,62.2,102,62.2z"/>
			<path class="st5" d="M318.7,319.5c-15,0-27.1-12.1-27.1-27.1c0-15,12.1-27.1,27.1-27.1c15,0,27.1,12.1,27.1,27.1
				C345.7,307.3,333.6,319.5,318.7,319.5L318.7,319.5z M318.7,278.9c-7.5,0-13.5,6.1-13.5,13.5c0,7.5,6.1,13.5,13.5,13.5
				c7.5,0,13.5-6.1,13.5-13.5C332.2,284.9,326.1,278.9,318.7,278.9L318.7,278.9z"/>
			<path class="st5" d="M210.3,319.5c-1.8,0-3.5-0.7-4.8-2c-1.3-1.3-2-3-2-4.8v-81.2c0-3.7,3-6.8,6.8-6.8s6.8,3,6.8,6.8v81.2
				c0,1.8-0.7,3.5-2,4.8C213.9,318.8,212.1,319.5,210.3,319.5L210.3,319.5z"/>
			<path class="st5" d="M244.2,157c-2.7,0-5.2-1.7-6.3-4.2c-1-2.5-0.5-5.4,1.5-7.4L313.9,71c1.7-1.7,4.2-2.4,6.6-1.8
				s4.2,2.5,4.8,4.8c0.6,2.4-0.1,4.9-1.8,6.6L249,155C247.7,156.3,246,157,244.2,157L244.2,157z"/>
			<path class="st5" d="M81.7,319.5c-2.7,0-5.2-1.7-6.3-4.2c-1-2.5-0.5-5.4,1.5-7.4l94.8-94.8c2.7-2.6,6.9-2.6,9.5,0
				c2.6,2.6,2.6,6.9,0,9.5l-94.8,94.8C85.2,318.8,83.5,319.5,81.7,319.5L81.7,319.5z"/>
			<path class="st5" d="M176.5,157c-1.8,0-3.5-0.7-4.8-2l-60.9-60.9c-2.6-2.7-2.6-6.9,0-9.5c2.6-2.6,6.9-2.6,9.5,0l60.9,60.9
				c1.9,1.9,2.5,4.8,1.5,7.4C181.7,155.3,179.2,157,176.5,157z"/>
			<path class="st5" d="M305.1,285.6c-1.8,0-3.5-0.7-4.8-2l-60.9-60.9c-2.6-2.7-2.6-6.9,0-9.5c2.6-2.6,6.9-2.6,9.5,0l60.9,60.9
				c1.9,1.9,2.5,4.8,1.5,7.4C310.3,284,307.9,285.6,305.1,285.6z"/>
		</g>
	</g>
</g>
<g id="Слой_3">
	<g>
		<path class="st3" d="M290.1,24.5c0,0-61.9,185.1-136.1,196.5c0,0,44,31,70.5,9.3s64.3-58.3,62.7-88.3S309.5,34.4,290.1,24.5z"/>
		<path class="st2" d="M199,240.8c0,0,106.3-4.8,97.4-208.9c0,0-43,182.8-128.2,198.5L199,240.8z"/>
		<polygon class="st2" points="199.4,82.1 215.6,103.5 239.3,103.5 222.4,126.7 224.6,155.7 199,145.2 174.9,155.7 180.6,131.2 
			161.8,106.4 188.5,101.8 		"/>
		<path class="st2" d="M256.2,293.7c0,0-36.9,43-114.4,43.8h114.4v-36V293.7z"/>
		<polygon class="st2" points="109.7,381.9 296.9,381.9 296.3,349.6 283.3,341.5 110.6,341.5 101.6,375.7 		"/>
		<path class="st2" d="M324,47.3c0,0,39.9,3.6,27.1,28.5c-12.8,24.9-16.1,73.6-60.9,79.9C290.1,155.7,331.5,91.4,324,47.3z"/>
		<g>
			<g>
				<path class="st5" d="M352.1,50.6c-5.1-6-12.6-9.5-20.6-9.5h-26V33c0-10.1-8.2-18.3-18.3-18.3H110.7c-10.1,0-18.3,8.2-18.3,18.3
					v8.1h-26c-7.9,0-15.4,3.5-20.6,9.5c-5.1,6-7.3,13.8-6,21.6c6.8,42.1,33.3,79.2,70.9,99.6c3.4,8.3,7.3,16.1,11.7,23.4
					c13.8,23.3,31,39.4,49.9,47.1c1.9,19.4-11,37.8-30.4,42.1c0,0-0.1,0-0.1,0c-3.8,0.9-6.6,4.3-6.6,8.4v39.6h-16
					c-14.3,0-25.9,11.6-25.9,25.9v20.4c0,4.8,3.9,8.6,8.6,8.6h195c4.8,0,8.6-3.9,8.6-8.6v-20.4c0-14.3-11.6-25.9-25.9-25.9h-16
					v-39.6c0-4.1-2.8-7.5-6.6-8.4c0,0-0.1,0-0.1,0c-19.6-4.4-32.5-23-30.4-42.5c18.6-7.9,35.5-23.8,49.1-46.8
					c4.3-7.3,8.2-15.1,11.7-23.4c37.6-20.4,64-57.5,70.9-99.6C359.4,64.5,357.2,56.6,352.1,50.6z M56.8,69.4
					c-0.4-2.8,0.3-5.5,2.1-7.6c1.9-2.2,4.6-3.4,7.4-3.4h26v15.9c0,24.9,3.2,49,9.2,71C78,126.6,61.7,99.4,56.8,69.4z M279.7,349.6
					c4.8,0,8.6,3.9,8.6,8.6v11.8H110.5v-11.8c0-4.8,3.9-8.6,8.6-8.6H279.7z M246.4,301.5v30.9h-94v-30.9H246.4z M175,284.2
					c2.1-2.3,4.1-4.9,5.8-7.6c5.7-9,8.8-19.2,8.9-29.6c3.1,0.4,6.2,0.6,9.3,0.6c3.4,0,6.8-0.3,10.1-0.8c0.2,14,5.6,27.3,14.8,37.3
					L175,284.2L175,284.2z M288.3,74.2c0,42.5-9.8,82.3-27.5,112.1c-16.9,28.4-38.8,44-61.8,44c-23,0-45-15.6-61.8-44
					c-17.7-29.8-27.5-69.6-27.5-112.1V33c0-0.6,0.5-1,1-1h176.6c0.6,0,1,0.5,1,1V74.2z M341.1,69.4c-4.9,30-21.2,57.1-44.8,75.8
					c6-22,9.2-46.1,9.2-71V58.4h26c2.9,0,5.6,1.3,7.4,3.4C340.8,63.9,341.6,66.7,341.1,69.4z"/>
			</g>
		</g>
		<g>
			<g>
				<path class="st5" d="M251.3,103.2c-1-3.1-3.7-5.4-7-5.9l-26-3.8L206.7,70c-1.5-2.9-4.5-4.8-7.7-4.8c-3.3,0-6.3,1.9-7.7,4.8
					l-11.6,23.6l-26,3.8c-3.2,0.5-5.9,2.7-7,5.9c-1,3.1-0.2,6.5,2.2,8.8l18.8,18.4l-4.4,25.9c-0.6,3.2,0.8,6.5,3.4,8.4
					c2.7,1.9,6.2,2.2,9.1,0.7l23.3-12.2l23.3,12.2c1.3,0.7,2.6,1,4,1c1.8,0,3.6-0.6,5.1-1.6c2.7-1.9,4-5.2,3.4-8.4l-4.4-25.9
					l18.8-18.4C251.5,109.8,252.3,106.4,251.3,103.2z M215,121.2c-2,2-3,4.8-2.5,7.6l2.3,13.2l-11.8-6.2c-1.3-0.7-2.6-1-4-1
					c-1.4,0-2.8,0.3-4,1l-11.8,6.2l2.3-13.2c0.5-2.8-0.4-5.7-2.5-7.6l-9.6-9.3l13.2-1.9c2.8-0.4,5.2-2.2,6.5-4.7l5.9-12l5.9,12
					c1.3,2.5,3.7,4.3,6.5,4.7l13.2,1.9L215,121.2z"/>
			</g>
		</g>
	</g>
</g>
</svg>
